# xmcd CD database file
#
# Track frame offsets:
#	150
#	17427
#	35117
#	52382
#	65480
#	78885
#	92750
#	114487
#	129007
#	144807
#	179610
#
# Disc length: 2500 seconds
#
# Revision: 3
# Processed by: cddbd v1.5.2PL0 Copyright (c) Steve Scherf et al.
# Submitted via: CDex 2.02
#
DISCID=8e09c20b
DTITLE=Barbara Streisand and Kris Kristofferson - A Star Is Born
DYEAR=1976
DGENRE=Country
TTITLE0=Watch Closely Now
TTITLE1=Queen Bee
TTITLE2=Everything
TTITLE3=Lost Inside Of You
TTITLE4=Hellacious Acres
TTITLE5=Love Theme From A Star Is Born (Evergreen)
TTITLE6=The Woman In The Moon
TTITLE7=I Believe In Love
TTITLE8=Crippled Crow
TTITLE9=Finale: One More Look At You, Watch Closely Now
TTITLE10=Reprise: Love Theme (Evergreen)
EXTD=YEAR: 1976
EXTT0=
EXTT1=
EXTT2=
EXTT3=
EXTT4=
EXTT5=
EXTT6=
EXTT7=
EXTT8=
EXTT9=
EXTT10=
PLAYORDER=
